<svg width="1440" height="99" viewBox="0 0 1440 99" fill="none" xmlns="http://www.w3.org/2000/svg">
<rect width="1440" height="99" fill="#E5E5E5"/>
<g clip-path="url(#clip0_0_1)">
<rect width="1440" height="4129" transform="translate(0 -583)" fill="white"/>
<rect x="858" y="-30.6826" width="164" height="70.2949" rx="7" fill="#F8F8F8"/>
<g clip-path="url(#clip1_0_1)">
<path d="M990.164 12.1193C990.224 10.4135 990.178 8.77413 990.363 7.18565C990.6 5.14724 991.703 3.91089 993.157 3.87176C995.083 3.8209 997.011 3.80916 998.939 3.87176C1000.65 3.93045 1001.8 5.6989 1001.81 8.15204C1001.81 9.45099 1001.81 10.7499 1001.81 12.1154L990.164 12.1193Z" fill="#03ACD1"/>
<path d="M993.172 -2.41478C993.184 -3.23114 993.364 -4.02418 993.689 -4.69394C994.014 -5.3637 994.47 -5.8802 994.999 -6.17834C995.528 -6.47648 996.107 -6.54292 996.662 -6.36927C997.218 -6.19562 997.725 -5.78967 998.12 -5.20258C998.515 -4.61549 998.78 -3.87353 998.882 -3.07024C998.984 -2.26694 998.918 -1.43826 998.693 -0.688645C998.468 0.0609698 998.093 0.697967 997.616 1.14206C997.139 1.58615 996.581 1.81745 996.013 1.80681C995.247 1.78623 994.518 1.33037 993.985 0.539092C993.453 -0.252189 993.161 -1.31437 993.172 -2.41478Z" fill="#03ACD1"/>
<path d="M1002.15 3.91429C1003.24 3.91429 1004.17 3.80083 1005.08 3.94168C1006.49 4.15687 1007.47 5.65927 1007.61 7.79549C1007.7 9.2079 1007.63 10.6399 1007.63 12.1266H1003.31C1003.11 9.37223 1003.73 6.43003 1002.15 3.91429Z" fill="#03ACD1"/>
<path d="M1004.7 -2.47632C1004.71 -1.73215 1004.59 -0.995812 1004.34 -0.344887C1004.09 0.306038 1003.72 0.84746 1003.27 1.22234C1002.82 1.59723 1002.31 1.79169 1001.79 1.78526C1001.27 1.77882 1000.77 1.57172 1000.32 1.18578C999.997 0.91973 999.823 0.665418 1000.02 0.0355053C1000.27 -0.72016 1000.4 -1.54515 1000.4 -2.38046C1000.4 -3.21578 1000.27 -4.04077 1000.02 -4.79643C999.858 -5.32462 999.97 -5.57893 1000.26 -5.81368C1000.68 -6.23119 1001.18 -6.47097 1001.69 -6.50621C1002.21 -6.54145 1002.72 -6.37076 1003.17 -6.01322C1003.63 -5.6883 1004.01 -5.18463 1004.28 -4.55941C1004.56 -3.9342 1004.7 -3.21251 1004.7 -2.47632Z" fill="#03ACD1"/>
</g>
<rect x="1029" y="-30.6826" width="164" height="70.2949" rx="7" fill="#F8F8F8"/>
<path d="M1176.85 12.3494H1170.29C1170.28 12.4882 1170.26 12.6236 1170.22 12.7515C1170.05 13.0973 1169.87 13.4231 1169.69 13.7569C1169.51 13.4271 1169.33 13.1014 1169.16 12.7676C1169.05 12.5585 1168.99 12.2448 1168.85 12.1322C1168.61 11.9683 1168.42 11.7102 1168.29 11.39C1168.16 11.0698 1168.09 10.7015 1168.11 10.3306C1168.11 5.60954 1168.11 0.888439 1168.11 -3.83266C1168.11 -5.17982 1168.56 -5.77499 1169.51 -5.77901C1172.2 -5.79241 1174.9 -5.79241 1177.59 -5.77901C1178.52 -5.77901 1178.99 -5.13157 1178.99 -3.82864C1179 0.892461 1179 5.61356 1178.99 10.3347C1179.01 10.7337 1178.93 11.1287 1178.77 11.4566C1178.38 12.0639 1177.9 12.5022 1177.79 13.4673C1177.73 13.9579 1177.12 13.8695 1176.96 13.3266C1176.9 13.0078 1176.86 12.68 1176.85 12.3494ZM1171.27 3.30529C1171.27 1.33079 1171.27 -0.643708 1171.27 -2.61821C1171.27 -3.15305 1171.24 -3.70398 1170.77 -3.70398C1170.3 -3.70398 1170.21 -3.20935 1170.21 -2.67048C1170.21 1.27851 1170.21 5.22751 1170.21 9.1765C1170.21 9.7033 1170.26 10.2583 1170.74 10.2381C1171.23 10.218 1171.27 9.67516 1171.27 9.12825C1171.27 7.18994 1171.27 5.24761 1171.27 3.30529ZM1176.89 3.22888C1176.89 1.32275 1176.89 -0.586067 1176.89 -2.49756C1176.89 -3.08066 1176.92 -3.74017 1176.33 -3.70398C1175.74 -3.66778 1175.84 -3.02436 1175.84 -2.49756C1175.84 1.34688 1175.84 5.19132 1175.84 9.03576C1175.84 9.58266 1175.84 10.206 1176.36 10.21C1176.89 10.214 1176.89 9.60679 1176.89 9.0438C1176.89 7.10549 1176.89 5.16719 1176.89 3.22888Z" fill="#03ACD1"/>
<path d="M1163.16 12.2653C1163.16 12.5935 1163.13 12.921 1163.06 13.2345C1162.97 13.4637 1162.75 13.7572 1162.61 13.7331C1162.47 13.709 1162.13 13.3953 1162.12 13.2023C1162.12 12.4865 1161.79 12.2251 1161.47 11.827C1161.21 11.4628 1161.05 10.9685 1161.03 10.4436C1160.99 7.29888 1161 4.15013 1161.03 1.00541C1161.01 0.776446 1161.03 0.545654 1161.08 0.32859C1161.14 0.111526 1161.22 -0.0867674 1161.33 -0.252924C1161.44 -0.41908 1161.58 -0.549239 1161.73 -0.634626C1161.88 -0.720014 1162.04 -0.758645 1162.2 -0.747918C1163.79 -0.792153 1165.38 -0.747918 1167.07 -0.747918C1167.07 -0.273394 1167.07 0.148851 1167.07 0.571097C1167.07 3.51475 1167.07 6.46243 1167.07 9.41815C1167.07 10.335 1167.16 11.2519 1167.21 12.2894L1163.16 12.2653ZM1164.16 5.83107C1164.16 4.66085 1164.16 3.4866 1164.16 2.31638C1164.16 1.78154 1164.09 1.18637 1163.62 1.30299C1163.49 1.39299 1163.38 1.5283 1163.29 1.69676C1163.21 1.86522 1163.15 2.06155 1163.13 2.26812C1163.09 4.5764 1163.09 6.88602 1163.13 9.19698C1163.13 9.53879 1163.45 9.87257 1163.62 10.2104C1163.8 9.88865 1164.11 9.58303 1164.13 9.24523C1164.2 8.12729 1164.16 6.98521 1164.16 5.84716V5.83107Z" fill="#03ACD1"/>
<path d="M1000.91 95.4511C1000.91 96.1401 1000.34 96.5171 999.588 96.5171C998.886 96.5171 998.028 96.1791 997.495 95.4901L996.585 96.5821C997.027 97.5051 998.392 98.0121 999.562 98.0121C1001.27 98.0121 1002.6 96.9721 1002.6 95.4381C1002.6 92.4091 998.483 93.0071 998.483 91.1221C998.483 90.5241 998.964 90.1211 999.757 90.1211C1000.49 90.1211 1000.93 90.3681 1001.37 90.7971L1002.23 89.6011C1001.68 89.0031 1000.75 88.6261 999.627 88.6261C997.859 88.6261 996.793 89.7701 996.793 91.1351C996.793 94.0991 1000.91 93.6571 1000.91 95.4511ZM1006.01 97.8691H1011.4V96.3741H1007.61V94.0211H1010.88V92.5261H1007.61V90.2641H1011.27V88.7691H1006.01V97.8691ZM1013.87 97.8691H1015.49L1016.44 95.5421H1020.32L1021.27 97.8691H1022.97L1019.13 88.7431H1017.72L1013.87 97.8691ZM1018.39 90.8101L1019.71 94.0471H1017.05L1018.39 90.8101ZM1027.5 97.8691V94.4631H1028.61L1031.12 97.8691H1033.06L1030.21 94.1511C1030.97 93.8911 1031.97 93.1111 1031.97 91.5511C1031.97 89.9781 1031.15 88.7431 1028.67 88.7431C1028.41 88.7431 1026.4 88.7691 1025.9 88.7691V97.8691H1027.5ZM1028.59 90.2381C1029.89 90.2381 1030.28 90.8491 1030.28 91.5641C1030.28 92.5001 1029.46 92.9681 1028.54 92.9681H1027.5V90.2641C1027.93 90.2511 1028.29 90.2381 1028.59 90.2381ZM1041.95 95.7891C1041.33 96.2701 1040.56 96.5171 1039.79 96.5171C1037.93 96.5171 1036.65 95.2171 1036.65 93.3191C1036.65 91.3431 1037.92 90.1211 1039.61 90.1211C1040.52 90.1211 1041.12 90.3681 1041.66 90.7321L1042.38 89.5491C1041.78 89.0031 1040.79 88.6261 1039.61 88.6261C1036.61 88.6261 1034.96 90.7061 1034.96 93.3191C1034.96 96.1531 1036.87 98.0121 1039.65 98.0121C1040.83 98.0121 1041.99 97.5961 1042.56 96.9851L1041.95 95.7891ZM1051.47 97.8691H1053.06V88.7691H1051.47V92.4871H1047.31V88.7691H1045.71V97.8691H1047.31V93.9821H1051.47V97.8691Z" fill="white"/>
<rect x="858" y="-30.6826" width="164" height="70.2949" rx="7" fill="#F8F8F8"/>
<rect x="1029" y="-30.6826" width="164" height="70.2949" rx="7" fill="#F8F8F8"/>
<path d="M1000.91 95.4511C1000.91 96.1401 1000.34 96.5171 999.588 96.5171C998.886 96.5171 998.028 96.1791 997.495 95.4901L996.585 96.5821C997.027 97.5051 998.392 98.0121 999.562 98.0121C1001.27 98.0121 1002.6 96.9721 1002.6 95.4381C1002.6 92.4091 998.483 93.0071 998.483 91.1221C998.483 90.5241 998.964 90.1211 999.757 90.1211C1000.49 90.1211 1000.93 90.3681 1001.37 90.7971L1002.23 89.6011C1001.68 89.0031 1000.75 88.6261 999.627 88.6261C997.859 88.6261 996.793 89.7701 996.793 91.1351C996.793 94.0991 1000.91 93.6571 1000.91 95.4511ZM1006.01 97.8691H1011.4V96.3741H1007.61V94.0211H1010.88V92.5261H1007.61V90.2641H1011.27V88.7691H1006.01V97.8691ZM1013.87 97.8691H1015.49L1016.44 95.5421H1020.32L1021.27 97.8691H1022.97L1019.13 88.7431H1017.72L1013.87 97.8691ZM1018.39 90.8101L1019.71 94.0471H1017.05L1018.39 90.8101ZM1027.5 97.8691V94.4631H1028.61L1031.12 97.8691H1033.06L1030.21 94.1511C1030.97 93.8911 1031.97 93.1111 1031.97 91.5511C1031.97 89.9781 1031.15 88.7431 1028.67 88.7431C1028.41 88.7431 1026.4 88.7691 1025.9 88.7691V97.8691H1027.5ZM1028.59 90.2381C1029.89 90.2381 1030.28 90.8491 1030.28 91.5641C1030.28 92.5001 1029.46 92.9681 1028.54 92.9681H1027.5V90.2641C1027.93 90.2511 1028.29 90.2381 1028.59 90.2381ZM1041.95 95.7891C1041.33 96.2701 1040.56 96.5171 1039.79 96.5171C1037.93 96.5171 1036.65 95.2171 1036.65 93.3191C1036.65 91.3431 1037.92 90.1211 1039.61 90.1211C1040.52 90.1211 1041.12 90.3681 1041.66 90.7321L1042.38 89.5491C1041.78 89.0031 1040.79 88.6261 1039.61 88.6261C1036.61 88.6261 1034.96 90.7061 1034.96 93.3191C1034.96 96.1531 1036.87 98.0121 1039.65 98.0121C1040.83 98.0121 1041.99 97.5961 1042.56 96.9851L1041.95 95.7891ZM1051.47 97.8691H1053.06V88.7691H1051.47V92.4871H1047.31V88.7691H1045.71V97.8691H1047.31V93.9821H1051.47V97.8691Z" fill="white"/>
<rect y="-526" width="240" height="625" fill="#C4C4C4"/>
<rect x="240" y="-526" width="240" height="625" fill="#C4C4C4"/>
<rect x="480" y="-526" width="240" height="625" fill="#C4C4C4"/>
<rect x="720" y="-526" width="240" height="625" fill="#C4C4C4"/>
<rect x="960" y="-526" width="240" height="625" fill="#C4C4C4"/>
<rect x="1200" y="-526" width="240" height="625" fill="#C4C4C4"/>
<rect x="1.5" y="1.5" width="1437" height="96" fill="#CD6022" stroke="white" stroke-width="3"/>
<path d="M129.914 39.1836H121.688V62H118.33V39.1836H110.121V36.4062H129.914V39.1836Z" fill="white"/>
<path d="M605.361 55.3203H594.639L592.23 62H588.75L598.523 36.4062H601.477L611.268 62H607.805L605.361 55.3203ZM595.658 52.543H604.359L600 40.5723L595.658 52.543Z" fill="white"/>
<path d="M839.982 57.5176L847.295 36.4062H850.986L841.494 62H838.506L829.031 36.4062H832.705L839.982 57.5176Z" fill="white"/>
<path d="M1087.21 50.1699H1076.12V59.2402H1089V62H1072.74V36.4062H1088.82V39.1836H1076.12V47.4102H1087.21V50.1699Z" fill="white"/>
<path d="M1316.68 59.2402H1328.81V62H1313.29V36.4062H1316.68V59.2402Z" fill="white"/>
<path d="M361.266 51.6465H355.254V62H351.861V36.4062H360.334C363.217 36.4062 365.432 37.0625 366.979 38.375C368.537 39.6875 369.316 41.5977 369.316 44.1055C369.316 45.6992 368.883 47.0879 368.016 48.2715C367.16 49.4551 365.965 50.3398 364.43 50.9258L370.441 61.7891V62H366.82L361.266 51.6465ZM355.254 48.8867H360.439C362.115 48.8867 363.445 48.4531 364.43 47.5859C365.426 46.7188 365.924 45.5586 365.924 44.1055C365.924 42.5234 365.449 41.3105 364.5 40.4668C363.562 39.623 362.203 39.1953 360.422 39.1836H355.254V48.8867Z" fill="white"/>
</g>
<defs>
<clipPath id="clip0_0_1">
<rect width="1440" height="4129" fill="white" transform="translate(0 -583)"/>
</clipPath>
<clipPath id="clip1_0_1">
<rect x="990" y="-7.72949" width="18" height="20.0842" fill="white"/>
</clipPath>
</defs>
</svg>
