<svg width="1440" height="99" viewBox="0 0 1440 99" fill="none" xmlns="http://www.w3.org/2000/svg">
<rect width="1440" height="99" fill="#E5E5E5"/>
<g clip-path="url(#clip0_0_1)">
<rect width="1440" height="4129" transform="translate(0 -583)" fill="white"/>
<rect x="858" y="-62.8086" width="164" height="66.2061" rx="7" fill="#F8F8F8"/>
<rect x="1029" y="-62.8086" width="164" height="66.2061" rx="7" fill="#F8F8F8"/>
<path d="M1000.91 57.6504C1000.91 58.3394 1000.34 58.7164 999.588 58.7164C998.886 58.7164 998.028 58.3784 997.495 57.6894L996.585 58.7814C997.027 59.7044 998.392 60.2114 999.562 60.2114C1001.27 60.2114 1002.6 59.1714 1002.6 57.6374C1002.6 54.6084 998.483 55.2064 998.483 53.3214C998.483 52.7234 998.964 52.3204 999.757 52.3204C1000.49 52.3204 1000.93 52.5674 1001.37 52.9964L1002.23 51.8004C1001.68 51.2024 1000.75 50.8254 999.627 50.8254C997.859 50.8254 996.793 51.9694 996.793 53.3344C996.793 56.2984 1000.91 55.8564 1000.91 57.6504ZM1006.01 60.0684H1011.4V58.5734H1007.61V56.2204H1010.88V54.7254H1007.61V52.4634H1011.27V50.9684H1006.01V60.0684ZM1013.87 60.0684H1015.49L1016.44 57.7414H1020.32L1021.27 60.0684H1022.97L1019.13 50.9424H1017.72L1013.87 60.0684ZM1018.39 53.0094L1019.71 56.2464H1017.05L1018.39 53.0094ZM1027.5 60.0684V56.6624H1028.61L1031.12 60.0684H1033.06L1030.21 56.3504C1030.97 56.0904 1031.97 55.3104 1031.97 53.7504C1031.97 52.1774 1031.15 50.9424 1028.67 50.9424C1028.41 50.9424 1026.4 50.9684 1025.9 50.9684V60.0684H1027.5ZM1028.59 52.4374C1029.89 52.4374 1030.28 53.0484 1030.28 53.7634C1030.28 54.6994 1029.46 55.1674 1028.54 55.1674H1027.5V52.4634C1027.93 52.4504 1028.29 52.4374 1028.59 52.4374ZM1041.95 57.9884C1041.33 58.4694 1040.56 58.7164 1039.79 58.7164C1037.93 58.7164 1036.65 57.4164 1036.65 55.5184C1036.65 53.5424 1037.92 52.3204 1039.61 52.3204C1040.52 52.3204 1041.12 52.5674 1041.66 52.9314L1042.38 51.7484C1041.78 51.2024 1040.79 50.8254 1039.61 50.8254C1036.61 50.8254 1034.96 52.9054 1034.96 55.5184C1034.96 58.3524 1036.87 60.2114 1039.65 60.2114C1040.83 60.2114 1041.99 59.7954 1042.56 59.1844L1041.95 57.9884ZM1051.47 60.0684H1053.06V50.9684H1051.47V54.6864H1047.31V50.9684H1045.71V60.0684H1047.31V56.1814H1051.47V60.0684Z" fill="white"/>
<rect x="858" y="-62.8086" width="164" height="66.2061" rx="7" fill="#F8F8F8"/>
<rect x="1029" y="-62.8086" width="164" height="66.2061" rx="7" fill="#F8F8F8"/>
<path d="M1000.91 57.6504C1000.91 58.3394 1000.34 58.7164 999.588 58.7164C998.886 58.7164 998.028 58.3784 997.495 57.6894L996.585 58.7814C997.027 59.7044 998.392 60.2114 999.562 60.2114C1001.27 60.2114 1002.6 59.1714 1002.6 57.6374C1002.6 54.6084 998.483 55.2064 998.483 53.3214C998.483 52.7234 998.964 52.3204 999.757 52.3204C1000.49 52.3204 1000.93 52.5674 1001.37 52.9964L1002.23 51.8004C1001.68 51.2024 1000.75 50.8254 999.627 50.8254C997.859 50.8254 996.793 51.9694 996.793 53.3344C996.793 56.2984 1000.91 55.8564 1000.91 57.6504ZM1006.01 60.0684H1011.4V58.5734H1007.61V56.2204H1010.88V54.7254H1007.61V52.4634H1011.27V50.9684H1006.01V60.0684ZM1013.87 60.0684H1015.49L1016.44 57.7414H1020.32L1021.27 60.0684H1022.97L1019.13 50.9424H1017.72L1013.87 60.0684ZM1018.39 53.0094L1019.71 56.2464H1017.05L1018.39 53.0094ZM1027.5 60.0684V56.6624H1028.61L1031.12 60.0684H1033.06L1030.21 56.3504C1030.97 56.0904 1031.97 55.3104 1031.97 53.7504C1031.97 52.1774 1031.15 50.9424 1028.67 50.9424C1028.41 50.9424 1026.4 50.9684 1025.9 50.9684V60.0684H1027.5ZM1028.59 52.4374C1029.89 52.4374 1030.28 53.0484 1030.28 53.7634C1030.28 54.6994 1029.46 55.1674 1028.54 55.1674H1027.5V52.4634C1027.93 52.4504 1028.29 52.4374 1028.59 52.4374ZM1041.95 57.9884C1041.33 58.4694 1040.56 58.7164 1039.79 58.7164C1037.93 58.7164 1036.65 57.4164 1036.65 55.5184C1036.65 53.5424 1037.92 52.3204 1039.61 52.3204C1040.52 52.3204 1041.12 52.5674 1041.66 52.9314L1042.38 51.7484C1041.78 51.2024 1040.79 50.8254 1039.61 50.8254C1036.61 50.8254 1034.96 52.9054 1034.96 55.5184C1034.96 58.3524 1036.87 60.2114 1039.65 60.2114C1040.83 60.2114 1041.99 59.7954 1042.56 59.1844L1041.95 57.9884ZM1051.47 60.0684H1053.06V50.9684H1051.47V54.6864H1047.31V50.9684H1045.71V60.0684H1047.31V56.1814H1051.47V60.0684Z" fill="white"/>
<rect y="-526" width="240" height="625" fill="#C4C4C4"/>
<rect x="240" y="-526" width="240" height="625" fill="#C4C4C4"/>
<rect x="480" y="-526" width="240" height="625" fill="#C4C4C4"/>
<rect x="720" y="-526" width="240" height="625" fill="#C4C4C4"/>
<rect x="960" y="-526" width="240" height="625" fill="#C4C4C4"/>
<rect x="1200" y="-526" width="240" height="625" fill="#C4C4C4"/>
<rect x="1.5" y="1.5" width="1437" height="96" fill="#FBBC04" stroke="white" stroke-width="3"/>
<path d="M129.914 39.1836H121.688V62H118.33V39.1836H110.121V36.4062H129.914V39.1836Z" fill="white"/>
<path d="M605.361 55.3203H594.639L592.23 62H588.75L598.523 36.4062H601.477L611.268 62H607.805L605.361 55.3203ZM595.658 52.543H604.359L600 40.5723L595.658 52.543Z" fill="white"/>
<path d="M839.982 57.5176L847.295 36.4062H850.986L841.494 62H838.506L829.031 36.4062H832.705L839.982 57.5176Z" fill="white"/>
<path d="M1087.21 50.1699H1076.12V59.2402H1089V62H1072.74V36.4062H1088.82V39.1836H1076.12V47.4102H1087.21V50.1699Z" fill="white"/>
<path d="M1316.68 59.2402H1328.81V62H1313.29V36.4062H1316.68V59.2402Z" fill="white"/>
<path d="M361.266 51.6465H355.254V62H351.861V36.4062H360.334C363.217 36.4062 365.432 37.0625 366.979 38.375C368.537 39.6875 369.316 41.5977 369.316 44.1055C369.316 45.6992 368.883 47.0879 368.016 48.2715C367.16 49.4551 365.965 50.3398 364.43 50.9258L370.441 61.7891V62H366.82L361.266 51.6465ZM355.254 48.8867H360.439C362.115 48.8867 363.445 48.4531 364.43 47.5859C365.426 46.7188 365.924 45.5586 365.924 44.1055C365.924 42.5234 365.449 41.3105 364.5 40.4668C363.562 39.623 362.203 39.1953 360.422 39.1836H355.254V48.8867Z" fill="white"/>
</g>
<defs>
<clipPath id="clip0_0_1">
<rect width="1440" height="4129" fill="white" transform="translate(0 -583)"/>
</clipPath>
</defs>
</svg>
