<svg width="1440" height="99" viewBox="0 0 1440 99" fill="none" xmlns="http://www.w3.org/2000/svg">
<rect width="1440" height="99" fill="#E5E5E5"/>
<g clip-path="url(#clip0_0_1)">
<rect width="1440" height="4129" transform="translate(0 -583)" fill="white"/>
<rect x="858" y="4.45996" width="164" height="74.7675" rx="7" fill="#F8F8F8"/>
<path d="M877.47 30.8818V27.3848C877.925 27.4238 878.471 27.4368 878.835 27.4368C881.058 27.4368 882.111 26.0588 882.111 24.5768C882.111 23.1598 881.344 21.7558 878.744 21.7558C878.172 21.7558 876.872 21.7818 876.365 21.7818V30.8818H877.47ZM878.848 22.7958C880.291 22.7958 880.941 23.4848 880.941 24.5638C880.941 25.7078 880.135 26.3968 878.796 26.3968C878.341 26.3968 877.912 26.3708 877.47 26.3318V22.8218C877.899 22.8088 878.484 22.7958 878.848 22.7958ZM883.573 26.2668C884.041 26.0198 884.47 25.8378 885.185 25.8378C886.342 25.8378 886.511 26.5918 886.511 27.6838C886.121 27.3978 885.51 27.3068 885.055 27.3068C883.794 27.3068 882.845 27.9698 882.845 29.1658C882.845 30.2968 883.573 30.9728 884.639 30.9728C885.601 30.9728 886.16 30.5698 886.511 30.1278V30.8818H887.499V27.2938C887.499 25.7728 886.914 24.9018 885.25 24.9018C884.522 24.9018 883.82 25.1098 883.3 25.4348L883.573 26.2668ZM885.003 30.0368C884.327 30.0368 883.95 29.6728 883.95 29.1138C883.95 28.4378 884.574 28.1518 885.198 28.1518C885.705 28.1518 886.147 28.2818 886.511 28.5418V29.2828C886.212 29.6338 885.77 30.0368 885.003 30.0368ZM892.205 29.2958C892.205 29.8288 891.711 30.1018 891.165 30.1018C890.58 30.1018 889.813 29.7508 889.475 29.3608L888.89 30.1018C889.163 30.5178 890.099 31.0118 891.048 31.0118C892.218 31.0118 893.31 30.4788 893.31 29.2438C893.31 27.1898 890.151 27.7748 890.151 26.5398C890.151 26.1498 890.502 25.8118 891.087 25.8118C891.698 25.8118 892.205 26.0718 892.556 26.3838L893.05 25.5908C892.699 25.2528 891.997 24.9018 891.035 24.9018C889.878 24.9018 889.046 25.5258 889.046 26.5528C889.046 28.6978 892.205 28.1128 892.205 29.2958ZM897.791 29.2958C897.791 29.8288 897.297 30.1018 896.751 30.1018C896.166 30.1018 895.399 29.7508 895.061 29.3608L894.476 30.1018C894.749 30.5178 895.685 31.0118 896.634 31.0118C897.804 31.0118 898.896 30.4788 898.896 29.2438C898.896 27.1898 895.737 27.7748 895.737 26.5398C895.737 26.1498 896.088 25.8118 896.673 25.8118C897.284 25.8118 897.791 26.0718 898.142 26.3838L898.636 25.5908C898.285 25.2528 897.583 24.9018 896.621 24.9018C895.464 24.9018 894.632 25.5258 894.632 26.5528C894.632 28.6978 897.791 28.1128 897.791 29.2958ZM900.725 26.2668C901.193 26.0198 901.622 25.8378 902.337 25.8378C903.494 25.8378 903.663 26.5918 903.663 27.6838C903.273 27.3978 902.662 27.3068 902.207 27.3068C900.946 27.3068 899.997 27.9698 899.997 29.1658C899.997 30.2968 900.725 30.9728 901.791 30.9728C902.753 30.9728 903.312 30.5698 903.663 30.1278V30.8818H904.651V27.2938C904.651 25.7728 904.066 24.9018 902.402 24.9018C901.674 24.9018 900.972 25.1098 900.452 25.4348L900.725 26.2668ZM902.155 30.0368C901.479 30.0368 901.102 29.6728 901.102 29.1138C901.102 28.4378 901.726 28.1518 902.35 28.1518C902.857 28.1518 903.299 28.2818 903.663 28.5418V29.2828C903.364 29.6338 902.922 30.0368 902.155 30.0368ZM906.392 30.8818H907.432V26.6568C907.809 26.2278 908.42 25.9028 909.083 25.9028C910.175 25.9028 910.734 26.4748 910.734 27.6968V30.8818H911.774V27.5018C911.774 25.6688 910.864 24.9278 909.343 24.9278C908.576 24.9278 907.835 25.3048 907.432 25.7468V25.0318H906.392V30.8818ZM912.721 31.7268C912.721 33.0008 913.995 33.5858 915.698 33.5858C917.401 33.5858 918.675 32.9748 918.675 31.7268C918.675 30.4528 917.401 29.8418 915.698 29.8418C915.581 29.8418 915.464 29.8548 915.347 29.8548C915.269 29.7508 915.23 29.6078 915.23 29.4648C915.23 29.3608 915.243 29.2438 915.295 29.1398C915.425 29.1528 915.555 29.1528 915.685 29.1528C917.128 29.1528 918.077 28.2168 918.077 27.0468C918.077 26.6828 917.986 26.3318 917.804 26.0328L918.909 25.7598L918.883 24.9148L917.167 25.3308C916.764 25.0578 916.257 24.9018 915.685 24.9018C914.216 24.9018 913.293 25.8768 913.293 27.0468C913.293 27.9048 913.774 28.6328 914.606 28.9708C914.502 29.1008 914.45 29.2828 914.45 29.4648C914.45 29.6338 914.489 29.8158 914.593 29.9458C913.475 30.1798 912.721 30.7778 912.721 31.7268ZM913.696 31.7268C913.696 31.0768 914.45 30.6868 915.698 30.6868C916.946 30.6868 917.7 31.0768 917.7 31.7268C917.7 32.3898 916.907 32.7408 915.698 32.7408C914.489 32.7408 913.696 32.3768 913.696 31.7268ZM914.268 27.0468C914.268 26.3188 914.827 25.7468 915.685 25.7468C916.556 25.7468 917.102 26.3188 917.102 27.0468C917.102 27.8008 916.504 28.3078 915.685 28.3078C914.827 28.3078 914.268 27.7748 914.268 27.0468ZM924.566 29.4258C924.189 29.7768 923.526 30.0368 922.772 30.0368C921.628 30.0368 920.822 29.3868 920.731 28.2818H925.229C925.268 28.0998 925.294 27.8658 925.294 27.5798C925.294 25.9678 924.085 24.9018 922.577 24.9018C920.653 24.9018 919.561 26.2538 919.561 27.9568C919.561 29.8028 920.796 31.0118 922.694 31.0118C923.474 31.0118 924.319 30.7648 924.891 30.2448L924.566 29.4258ZM922.525 25.8768C923.539 25.8768 924.163 26.4748 924.215 27.4368H920.666C920.783 26.5398 921.459 25.8768 922.525 25.8768ZM926.705 30.8818H927.745V26.7348C927.966 26.3058 928.291 25.9028 928.967 25.9028C929.318 25.9028 929.474 25.9548 929.76 26.1238L930.124 25.1488C929.929 25.0058 929.695 24.9278 929.214 24.9278C928.473 24.9278 928.044 25.2788 927.745 25.7208V25.0318H926.705V30.8818ZM934.087 29.2958C934.087 29.8288 933.593 30.1018 933.047 30.1018C932.462 30.1018 931.695 29.7508 931.357 29.3608L930.772 30.1018C931.045 30.5178 931.981 31.0118 932.93 31.0118C934.1 31.0118 935.192 30.4788 935.192 29.2438C935.192 27.1898 932.033 27.7748 932.033 26.5398C932.033 26.1498 932.384 25.8118 932.969 25.8118C933.58 25.8118 934.087 26.0718 934.438 26.3838L934.932 25.5908C934.581 25.2528 933.879 24.9018 932.917 24.9018C931.76 24.9018 930.928 25.5258 930.928 26.5528C930.928 28.6978 934.087 28.1128 934.087 29.2958ZM937.137 25.6038C937.137 25.9938 937.423 26.3448 937.878 26.3448C938.281 26.3448 938.567 25.9938 938.567 25.6038C938.567 25.2658 938.281 24.9148 937.878 24.9148C937.423 24.9148 937.137 25.2658 937.137 25.6038ZM937.137 30.1798C937.137 30.5698 937.423 30.9208 937.878 30.9208C938.281 30.9208 938.567 30.5698 938.567 30.1798C938.567 29.8418 938.281 29.4908 937.878 29.4908C937.423 29.4908 937.137 29.8418 937.137 30.1798Z" fill="#B9B9B9"/>
<path d="M943.441 30.8818H948.992V29.9068H944.793C945.521 29.2698 948.615 26.5268 948.615 23.9788C948.615 22.8478 947.822 21.6778 946.119 21.6778C944.845 21.6778 943.74 22.4578 943.519 23.8098L944.403 24.1738C944.585 23.1988 945.3 22.7178 946.028 22.7178C947.016 22.7178 947.51 23.3808 947.51 24.1868C947.51 26.1238 944.923 28.5808 943.441 30.0368V30.8818Z" fill="#292929"/>
<path d="M990.164 49.9837C990.224 48.1693 990.178 46.4257 990.363 44.7361C990.6 42.568 991.703 41.253 993.157 41.2114C995.083 41.1573 997.011 41.1448 998.939 41.2114C1000.65 41.2738 1001.8 43.1548 1001.81 45.764C1001.81 47.1456 1001.81 48.5272 1001.81 49.9795L990.164 49.9837Z" fill="#03ACD1"/>
<path d="M993.172 34.5255C993.184 33.6572 993.364 32.8137 993.689 32.1013C994.014 31.3889 994.47 30.8395 994.999 30.5224C995.528 30.2053 996.107 30.1347 996.662 30.3194C997.218 30.5041 997.725 30.9358 998.12 31.5603C998.515 32.1847 998.78 32.9739 998.882 33.8283C998.984 34.6827 998.918 35.5641 998.693 36.3614C998.468 37.1587 998.093 37.8363 997.616 38.3086C997.139 38.781 996.581 39.027 996.013 39.0157C995.247 38.9938 994.518 38.5089 993.985 37.6673C993.453 36.8257 993.161 35.6959 993.172 34.5255Z" fill="#03ACD1"/>
<path d="M1002.15 41.2579C1003.24 41.2579 1004.17 41.1372 1005.08 41.287C1006.49 41.5159 1007.47 43.1139 1007.61 45.386C1007.7 46.8883 1007.63 48.4114 1007.63 49.9927H1003.31C1003.11 47.0631 1003.73 43.9337 1002.15 41.2579Z" fill="#03ACD1"/>
<path d="M1004.7 34.4601C1004.71 35.2516 1004.59 36.0348 1004.34 36.7271C1004.09 37.4195 1003.72 37.9953 1003.27 38.3941C1002.82 38.7928 1002.31 38.9996 1001.79 38.9928C1001.27 38.9859 1000.77 38.7657 1000.32 38.3552C999.997 38.0722 999.823 37.8017 1000.02 37.1317C1000.27 36.328 1000.4 35.4505 1000.4 34.562C1000.4 33.6736 1000.27 32.7961 1000.02 31.9923C999.858 31.4305 999.97 31.16 1000.26 30.9104C1000.68 30.4663 1001.18 30.2112 1001.69 30.1738C1002.21 30.1363 1002.72 30.3178 1003.17 30.6981C1003.63 31.0437 1004.01 31.5794 1004.28 32.2444C1004.56 32.9094 1004.7 33.677 1004.7 34.4601Z" fill="#03ACD1"/>
<rect x="1029" y="4.45996" width="164" height="74.7675" rx="7" fill="#F8F8F8"/>
<path d="M1047.37 30.8818H1052.96V29.8418H1048.47V21.7818H1047.37V30.8818ZM1059.22 25.0318H1058.18V29.1658C1057.81 29.6338 1057.18 30.0368 1056.5 30.0368C1055.44 30.0368 1054.99 29.3868 1054.99 28.2818V25.0318H1053.95V28.5158C1053.95 30.2318 1054.81 31.0118 1056.11 31.0118C1057.03 31.0118 1057.78 30.5438 1058.18 30.0498V30.8818H1059.22V25.0318ZM1060.3 31.7268C1060.3 33.0008 1061.57 33.5858 1063.27 33.5858C1064.98 33.5858 1066.25 32.9748 1066.25 31.7268C1066.25 30.4528 1064.98 29.8418 1063.27 29.8418C1063.16 29.8418 1063.04 29.8548 1062.92 29.8548C1062.85 29.7508 1062.81 29.6078 1062.81 29.4648C1062.81 29.3608 1062.82 29.2438 1062.87 29.1398C1063 29.1528 1063.13 29.1528 1063.26 29.1528C1064.7 29.1528 1065.65 28.2168 1065.65 27.0468C1065.65 26.6828 1065.56 26.3318 1065.38 26.0328L1066.49 25.7598L1066.46 24.9148L1064.74 25.3308C1064.34 25.0578 1063.83 24.9018 1063.26 24.9018C1061.79 24.9018 1060.87 25.8768 1060.87 27.0468C1060.87 27.9048 1061.35 28.6328 1062.18 28.9708C1062.08 29.1008 1062.03 29.2828 1062.03 29.4648C1062.03 29.6338 1062.07 29.8158 1062.17 29.9458C1061.05 30.1798 1060.3 30.7778 1060.3 31.7268ZM1061.27 31.7268C1061.27 31.0768 1062.03 30.6868 1063.27 30.6868C1064.52 30.6868 1065.28 31.0768 1065.28 31.7268C1065.28 32.3898 1064.48 32.7408 1063.27 32.7408C1062.07 32.7408 1061.27 32.3768 1061.27 31.7268ZM1061.84 27.0468C1061.84 26.3188 1062.4 25.7468 1063.26 25.7468C1064.13 25.7468 1064.68 26.3188 1064.68 27.0468C1064.68 27.8008 1064.08 28.3078 1063.26 28.3078C1062.4 28.3078 1061.84 27.7748 1061.84 27.0468ZM1066.72 31.7268C1066.72 33.0008 1068 33.5858 1069.7 33.5858C1071.4 33.5858 1072.68 32.9748 1072.68 31.7268C1072.68 30.4528 1071.4 29.8418 1069.7 29.8418C1069.58 29.8418 1069.46 29.8548 1069.35 29.8548C1069.27 29.7508 1069.23 29.6078 1069.23 29.4648C1069.23 29.3608 1069.24 29.2438 1069.3 29.1398C1069.43 29.1528 1069.56 29.1528 1069.69 29.1528C1071.13 29.1528 1072.08 28.2168 1072.08 27.0468C1072.08 26.6828 1071.99 26.3318 1071.8 26.0328L1072.91 25.7598L1072.88 24.9148L1071.17 25.3308C1070.76 25.0578 1070.26 24.9018 1069.69 24.9018C1068.22 24.9018 1067.29 25.8768 1067.29 27.0468C1067.29 27.9048 1067.77 28.6328 1068.61 28.9708C1068.5 29.1008 1068.45 29.2828 1068.45 29.4648C1068.45 29.6338 1068.49 29.8158 1068.59 29.9458C1067.48 30.1798 1066.72 30.7778 1066.72 31.7268ZM1067.7 31.7268C1067.7 31.0768 1068.45 30.6868 1069.7 30.6868C1070.95 30.6868 1071.7 31.0768 1071.7 31.7268C1071.7 32.3898 1070.91 32.7408 1069.7 32.7408C1068.49 32.7408 1067.7 32.3768 1067.7 31.7268ZM1068.27 27.0468C1068.27 26.3188 1068.83 25.7468 1069.69 25.7468C1070.56 25.7468 1071.1 26.3188 1071.1 27.0468C1071.1 27.8008 1070.5 28.3078 1069.69 28.3078C1068.83 28.3078 1068.27 27.7748 1068.27 27.0468ZM1079.09 25.0318H1078.05V29.1658C1077.68 29.6338 1077.05 30.0368 1076.37 30.0368C1075.3 30.0368 1074.86 29.3868 1074.86 28.2818V25.0318H1073.82V28.5158C1073.82 30.2318 1074.68 31.0118 1075.98 31.0118C1076.9 31.0118 1077.64 30.5438 1078.05 30.0498V30.8818H1079.09V25.0318ZM1081.28 26.2668C1081.75 26.0198 1082.18 25.8378 1082.9 25.8378C1084.05 25.8378 1084.22 26.5918 1084.22 27.6838C1083.83 27.3978 1083.22 27.3068 1082.77 27.3068C1081.51 27.3068 1080.56 27.9698 1080.56 29.1658C1080.56 30.2968 1081.28 30.9728 1082.35 30.9728C1083.31 30.9728 1083.87 30.5698 1084.22 30.1278V30.8818H1085.21V27.2938C1085.21 25.7728 1084.63 24.9018 1082.96 24.9018C1082.23 24.9018 1081.53 25.1098 1081.01 25.4348L1081.28 26.2668ZM1082.71 30.0368C1082.04 30.0368 1081.66 29.6728 1081.66 29.1138C1081.66 28.4378 1082.29 28.1518 1082.91 28.1518C1083.42 28.1518 1083.86 28.2818 1084.22 28.5418V29.2828C1083.92 29.6338 1083.48 30.0368 1082.71 30.0368ZM1086.15 31.7268C1086.15 33.0008 1087.42 33.5858 1089.12 33.5858C1090.83 33.5858 1092.1 32.9748 1092.1 31.7268C1092.1 30.4528 1090.83 29.8418 1089.12 29.8418C1089.01 29.8418 1088.89 29.8548 1088.77 29.8548C1088.69 29.7508 1088.65 29.6078 1088.65 29.4648C1088.65 29.3608 1088.67 29.2438 1088.72 29.1398C1088.85 29.1528 1088.98 29.1528 1089.11 29.1528C1090.55 29.1528 1091.5 28.2168 1091.5 27.0468C1091.5 26.6828 1091.41 26.3318 1091.23 26.0328L1092.33 25.7598L1092.31 24.9148L1090.59 25.3308C1090.19 25.0578 1089.68 24.9018 1089.11 24.9018C1087.64 24.9018 1086.72 25.8768 1086.72 27.0468C1086.72 27.9048 1087.2 28.6328 1088.03 28.9708C1087.93 29.1008 1087.87 29.2828 1087.87 29.4648C1087.87 29.6338 1087.91 29.8158 1088.02 29.9458C1086.9 30.1798 1086.15 30.7778 1086.15 31.7268ZM1087.12 31.7268C1087.12 31.0768 1087.87 30.6868 1089.12 30.6868C1090.37 30.6868 1091.12 31.0768 1091.12 31.7268C1091.12 32.3898 1090.33 32.7408 1089.12 32.7408C1087.91 32.7408 1087.12 32.3768 1087.12 31.7268ZM1087.69 27.0468C1087.69 26.3188 1088.25 25.7468 1089.11 25.7468C1089.98 25.7468 1090.53 26.3188 1090.53 27.0468C1090.53 27.8008 1089.93 28.3078 1089.11 28.3078C1088.25 28.3078 1087.69 27.7748 1087.69 27.0468ZM1097.99 29.4258C1097.61 29.7768 1096.95 30.0368 1096.2 30.0368C1095.05 30.0368 1094.25 29.3868 1094.16 28.2818H1098.65C1098.69 28.0998 1098.72 27.8658 1098.72 27.5798C1098.72 25.9678 1097.51 24.9018 1096 24.9018C1094.08 24.9018 1092.99 26.2538 1092.99 27.9568C1092.99 29.8028 1094.22 31.0118 1096.12 31.0118C1096.9 31.0118 1097.74 30.7648 1098.32 30.2448L1097.99 29.4258ZM1095.95 25.8768C1096.96 25.8768 1097.59 26.4748 1097.64 27.4368H1094.09C1094.21 26.5398 1094.88 25.8768 1095.95 25.8768ZM1100.56 25.6038C1100.56 25.9938 1100.84 26.3448 1101.3 26.3448C1101.7 26.3448 1101.99 25.9938 1101.99 25.6038C1101.99 25.2658 1101.7 24.9148 1101.3 24.9148C1100.84 24.9148 1100.56 25.2658 1100.56 25.6038ZM1100.56 30.1798C1100.56 30.5698 1100.84 30.9208 1101.3 30.9208C1101.7 30.9208 1101.99 30.5698 1101.99 30.1798C1101.99 29.8418 1101.7 29.4908 1101.3 29.4908C1100.84 29.4908 1100.56 29.8418 1100.56 30.1798Z" fill="#B9B9B9"/>
<path d="M1109.49 31.0118C1111.11 31.0118 1112.35 29.9978 1112.35 28.3728C1112.35 27.3068 1111.71 26.3578 1110.58 26.1758V26.1368C1111.5 25.7468 1112 24.9408 1112 23.9528C1112 22.5228 1111.01 21.6518 1109.49 21.6518C1108.31 21.6518 1107.37 22.1848 1106.95 23.1078L1107.54 23.8228C1107.94 23.1208 1108.51 22.6918 1109.41 22.6918C1110.33 22.6918 1110.89 23.2378 1110.89 24.1348C1110.89 25.0708 1110.13 25.7078 1109.32 25.7078H1108.67V26.7478H1109.38C1110.48 26.7478 1111.24 27.3588 1111.24 28.3338C1111.24 29.2568 1110.58 29.9718 1109.45 29.9718C1108.6 29.9718 1107.79 29.5558 1107.33 28.7108L1106.73 29.4518C1107.2 30.4658 1108.23 31.0118 1109.49 31.0118Z" fill="#292929"/>
<path d="M1176.85 50.23H1170.29C1170.28 50.3777 1170.26 50.5217 1170.22 50.6578C1170.05 51.0256 1169.87 51.3721 1169.69 51.7271C1169.51 51.3763 1169.33 51.0299 1169.16 50.6749C1169.05 50.4525 1168.99 50.1188 1168.85 49.9991C1168.61 49.8247 1168.42 49.5503 1168.29 49.2097C1168.16 48.8691 1168.09 48.4773 1168.11 48.0829C1168.11 43.0614 1168.11 38.0399 1168.11 33.0184C1168.11 31.5855 1168.56 30.9525 1169.51 30.9482C1172.2 30.9339 1174.9 30.9339 1177.59 30.9482C1178.52 30.9482 1178.99 31.6368 1178.99 33.0227C1179 38.0442 1179 43.0656 1178.99 48.0871C1179.01 48.5115 1178.93 48.9317 1178.77 49.2805C1178.38 49.9264 1177.9 50.3926 1177.79 51.4191C1177.73 51.9409 1177.12 51.8468 1176.96 51.2694C1176.9 50.9304 1176.86 50.5817 1176.85 50.23ZM1171.27 40.6105C1171.27 38.5104 1171.27 36.4102 1171.27 34.3101C1171.27 33.7412 1171.24 33.1553 1170.77 33.1553C1170.3 33.1553 1170.21 33.6814 1170.21 34.2545C1170.21 38.4548 1170.21 42.655 1170.21 46.8553C1170.21 47.4156 1170.26 48.0059 1170.74 47.9845C1171.23 47.9631 1171.27 47.3857 1171.27 46.804C1171.27 44.7423 1171.27 42.6764 1171.27 40.6105ZM1176.89 40.5292C1176.89 38.5018 1176.89 36.4716 1176.89 34.4384C1176.89 33.8182 1176.92 33.1168 1176.33 33.1553C1175.74 33.1938 1175.84 33.8781 1175.84 34.4384C1175.84 38.5275 1175.84 42.6165 1175.84 46.7056C1175.84 47.2873 1175.84 47.9503 1176.36 47.9545C1176.89 47.9588 1176.89 47.313 1176.89 46.7141C1176.89 44.6525 1176.89 42.5909 1176.89 40.5292Z" fill="#03ACD1"/>
<path d="M1163.16 50.1404C1163.16 50.4895 1163.13 50.8379 1163.06 51.1713C1162.97 51.4151 1162.75 51.7273 1162.61 51.7016C1162.47 51.676 1162.13 51.3424 1162.12 51.137C1162.12 50.3757 1161.79 50.0977 1161.47 49.6742C1161.21 49.2868 1161.05 48.7611 1161.03 48.2028C1160.99 44.858 1161 41.5089 1161.03 38.1641C1161.01 37.9206 1161.03 37.6751 1161.08 37.4442C1161.14 37.2134 1161.22 37.0024 1161.33 36.8257C1161.44 36.649 1161.58 36.5106 1161.73 36.4197C1161.88 36.3289 1162.04 36.2878 1162.2 36.2992C1163.79 36.2522 1165.38 36.2992 1167.07 36.2992C1167.07 36.8039 1167.07 37.2531 1167.07 37.7022C1167.07 40.8331 1167.07 43.9684 1167.07 47.1121C1167.07 48.0874 1167.16 49.0626 1167.21 50.1661L1163.16 50.1404ZM1164.16 43.2968C1164.16 42.0521 1164.16 40.8032 1164.16 39.5585C1164.16 38.9896 1164.09 38.3566 1163.62 38.4806C1163.49 38.5764 1163.38 38.7203 1163.29 38.8995C1163.21 39.0786 1163.15 39.2875 1163.13 39.5072C1163.09 41.9623 1163.09 44.4189 1163.13 46.8769C1163.13 47.2405 1163.45 47.5955 1163.62 47.9548C1163.8 47.6126 1164.11 47.2875 1164.13 46.9282C1164.2 45.7391 1164.16 44.5244 1164.16 43.3139V43.2968Z" fill="#03ACD1"/>
<path d="M1175.85 29.2804H1174.78C1174.78 28.4591 1174.78 27.655 1174.78 26.8466C1174.78 26.2563 1174.62 25.9911 1174.24 25.9911H1174.17C1172.37 25.8286 1172.37 25.8286 1172.32 28.5575C1172.32 28.7671 1172.3 28.9853 1172.28 29.2376H1171.25C1171.43 27.7405 1170.84 26.051 1171.84 24.7849C1172.3 24.1989 1174.65 24.1091 1175.17 24.6822C1176.28 25.9184 1175.69 27.6849 1175.85 29.2804Z" fill="#03ACD1"/>
<path d="M1167.2 31.3931L1167.01 32.9286C1166.16 32.6592 1165.7 33.1254 1165.95 34.6011H1164.99C1164.55 32.2999 1165.36 31.0765 1167.2 31.3931Z" fill="#03ACD1"/>
<rect x="858" y="4.45996" width="164" height="74.7675" rx="7" fill="#F8F8F8"/>
<rect x="1029" y="4.45996" width="164" height="74.7675" rx="7" fill="#F8F8F8"/>
<rect y="-526" width="240" height="625" fill="#C4C4C4"/>
<rect x="240" y="-526" width="240" height="625" fill="#C4C4C4"/>
<rect x="480" y="-526" width="240" height="625" fill="#C4C4C4"/>
<rect x="720" y="-526" width="240" height="625" fill="#C4C4C4"/>
<rect x="960" y="-526" width="240" height="625" fill="#C4C4C4"/>
<rect x="1200" y="-526" width="240" height="625" fill="#C4C4C4"/>
<rect x="1.5" y="1.5" width="1437" height="96" fill="#03ACD1" stroke="white" stroke-width="3"/>
<path d="M129.914 39.1836H121.688V62H118.33V39.1836H110.121V36.4062H129.914V39.1836Z" fill="white"/>
<path d="M605.361 55.3203H594.639L592.23 62H588.75L598.523 36.4062H601.477L611.268 62H607.805L605.361 55.3203ZM595.658 52.543H604.359L600 40.5723L595.658 52.543Z" fill="white"/>
<path d="M839.982 57.5176L847.295 36.4062H850.986L841.494 62H838.506L829.031 36.4062H832.705L839.982 57.5176Z" fill="white"/>
<path d="M1087.21 50.1699H1076.12V59.2402H1089V62H1072.74V36.4062H1088.82V39.1836H1076.12V47.4102H1087.21V50.1699Z" fill="white"/>
<path d="M1316.68 59.2402H1328.81V62H1313.29V36.4062H1316.68V59.2402Z" fill="white"/>
<path d="M361.266 51.6465H355.254V62H351.861V36.4062H360.334C363.217 36.4062 365.432 37.0625 366.979 38.375C368.537 39.6875 369.316 41.5977 369.316 44.1055C369.316 45.6992 368.883 47.0879 368.016 48.2715C367.16 49.4551 365.965 50.3398 364.43 50.9258L370.441 61.7891V62H366.82L361.266 51.6465ZM355.254 48.8867H360.439C362.115 48.8867 363.445 48.4531 364.43 47.5859C365.426 46.7188 365.924 45.5586 365.924 44.1055C365.924 42.5234 365.449 41.3105 364.5 40.4668C363.562 39.623 362.203 39.1953 360.422 39.1836H355.254V48.8867Z" fill="white"/>
</g>
<defs>
<clipPath id="clip0_0_1">
<rect width="1440" height="4129" fill="white" transform="translate(0 -583)"/>
</clipPath>
</defs>
</svg>
